<svg width="13" height="11" viewBox="0 0 13 11" fill="none" xmlns="http://www.w3.org/2000/svg">
<rect x="0.859985" width="11.28" height="11" rx="4" fill="#FF6633"/>
<path d="M7.37999 9C7.31332 9 7.25665 8.98 7.20999 8.94C7.16999 8.89333 7.14999 8.83667 7.14999 8.77V3.17L5.48999 4.45C5.44332 4.49 5.39332 4.51 5.33999 4.51C5.27999 4.51 5.22332 4.47667 5.16999 4.41L4.90999 4.08C4.87665 4.03333 4.85999 3.98667 4.85999 3.94C4.85999 3.86 4.89332 3.79667 4.95999 3.75L7.13999 2.07C7.21332 2.02333 7.29999 2 7.39999 2H7.90999C7.97665 2 8.02999 2.02333 8.06999 2.07C8.11665 2.11 8.13999 2.16333 8.13999 2.23V8.77C8.13999 8.83667 8.11665 8.89333 8.06999 8.94C8.02999 8.98 7.97665 9 7.90999 9H7.37999Z" fill="white"/>
</svg>
