<svg width="126" height="126" viewBox="0 0 126 126" fill="none" xmlns="http://www.w3.org/2000/svg">
<path d="M24.5192 22.9964L10.4017 10.338C10.106 10.0728 9.63839 10.1083 9.3987 10.4302C6.53956 14.2426 7.31545 19.957 11.304 23.5333C15.2925 27.1097 21.0563 27.2613 24.5366 24.0035C24.8292 23.7291 24.815 23.2616 24.5192 22.9964Z" fill="white"/>
<path d="M97.6105 109.398L111.728 122.056C112.024 122.322 112.491 122.286 112.731 121.964C115.59 118.152 114.814 112.437 110.826 108.861C106.837 105.285 101.073 105.133 97.5931 108.391C97.3005 108.665 97.3147 109.133 97.6105 109.398Z" fill="white"/>
<path d="M113.539 47.5559L98.8573 35.5569C98.5497 35.3055 98.0842 35.3623 97.8595 35.6949C95.1778 39.6341 96.2144 45.3071 100.362 48.6971C104.511 52.0871 110.275 51.9748 113.603 48.5612C113.882 48.2737 113.847 47.8073 113.539 47.5559Z" fill="white"/>
<path d="M18.2986 89.2987L31.6529 75.8376C31.9327 75.5555 31.9208 75.0868 31.6114 74.8312C27.948 71.7834 22.2017 72.2701 18.4288 76.0732C14.6559 79.8763 14.2138 85.6251 17.2919 89.2653C17.5512 89.5714 18.0188 89.5808 18.2986 89.2987Z" fill="white"/>
<path d="M15.4578 58.6614C12.6739 58.9571 9.93631 54.6696 9.34321 49.085C8.75011 43.5004 10.5261 38.7335 13.31 38.4378C16.094 38.1421 18.8316 42.4297 19.4247 48.0143C20.0178 53.5989 18.2418 58.3658 15.4578 58.6614Z" fill="white"/>
<path d="M108.286 68.2907C111.07 67.995 113.807 72.2826 114.4 77.8672C114.993 83.4518 113.217 88.2187 110.433 88.5143C107.65 88.81 104.912 84.5225 104.319 78.9379C103.726 73.3532 105.502 68.5863 108.286 68.2907Z" fill="white"/>
<path d="M77.9279 15.4532C79.7382 16.7545 78.5486 21.5062 75.2706 26.0663C71.9927 30.6264 67.8678 33.2682 66.0575 31.9669C64.2471 30.6655 65.4368 25.9139 68.7147 21.3537C71.9926 16.7936 76.1175 14.1518 77.9279 15.4532Z" fill="white"/>
<path d="M50.9887 92.9476C48.7723 92.7062 47.4683 87.9846 48.0763 82.4016C48.6843 76.8186 50.9739 72.4884 53.1904 72.7297C55.4068 72.9711 56.7108 77.6927 56.1028 83.2757C55.4948 88.8587 53.2052 93.1889 50.9887 92.9476Z" fill="white"/>
<path fill-rule="evenodd" clip-rule="evenodd" d="M52.165 45.3134C53.0924 46.6101 52.7922 48.4107 51.4944 49.3351C48.5718 51.4166 44.6388 52.0346 40.9138 50.8242C37.1886 49.6139 34.3707 46.8017 33.2297 43.4008C32.7229 41.8903 33.5381 40.257 35.0506 39.7528C36.563 39.2487 38.2 40.0645 38.7068 41.5751C39.2452 43.1799 40.6499 44.676 42.6955 45.3406C44.7416 46.0055 46.7574 45.6208 48.1359 44.639C49.4337 43.7147 51.2376 44.0166 52.165 45.3134Z" fill="white"/>
<path fill-rule="evenodd" clip-rule="evenodd" d="M73.2885 80.7997C72.3611 79.5029 72.6614 77.7023 73.9592 76.778C76.8817 74.6965 80.8147 74.0785 84.5398 75.2888C88.2649 76.4991 91.0829 79.3113 92.2239 82.7122C92.7307 84.2228 91.9154 85.856 90.403 86.3602C88.8905 86.8644 87.2536 86.0485 86.7468 84.5379C86.2083 82.9331 84.8036 81.437 82.7581 80.7724C80.7119 80.1076 78.6962 80.4922 77.3177 81.474C76.0199 82.3984 74.216 82.0964 73.2885 80.7997Z" fill="white"/>
<path fill-rule="evenodd" clip-rule="evenodd" d="M102.136 12.6122C101.881 11.0384 102.95 9.5586 104.523 9.30697C108.066 8.74031 111.864 9.93371 114.664 12.6728C117.464 15.4119 118.739 19.1831 118.251 22.7369C118.034 24.3154 116.578 25.4165 114.999 25.1964C113.42 24.9762 112.316 23.5181 112.533 21.9396C112.763 20.2627 112.169 18.2983 110.632 16.7942C109.094 15.2896 107.117 14.7388 105.446 15.0061C103.873 15.2578 102.391 14.186 102.136 12.6122Z" fill="white"/>
<path fill-rule="evenodd" clip-rule="evenodd" d="M57.3492 113.026C58.4764 114.154 58.4751 115.979 57.3461 117.104C54.8039 119.636 51.0251 120.889 47.1522 120.305C43.2792 119.721 40.0388 117.408 38.3563 114.24C37.609 112.833 38.1458 111.088 39.5553 110.343C40.9648 109.598 42.7132 110.135 43.4605 111.542C44.2545 113.037 45.8852 114.283 48.0119 114.604C50.1394 114.925 52.0649 114.215 53.264 113.021C54.393 111.897 56.222 111.899 57.3492 113.026Z" fill="white"/>
<path d="M40.3619 14.979C39.6104 13.8585 39.9095 12.341 41.03 11.5894L52.8987 3.62881C54.0192 2.87727 55.5367 3.17636 56.2883 4.29685L58.6356 7.79659C59.3872 8.91709 59.0881 10.4347 57.9676 11.1862L46.0989 19.1468C44.9784 19.8984 43.4608 19.5993 42.7093 18.4788L40.3619 14.979Z" fill="white"/>
<path d="M67.1789 101.745C66.8911 100.427 67.7263 99.1253 69.0445 98.8376L83.0067 95.7893C84.3249 95.5015 85.6267 96.3368 85.9145 97.6549L86.8134 101.772C87.1012 103.09 86.2659 104.392 84.9477 104.68L70.9855 107.728C69.6673 108.016 68.3655 107.181 68.0777 105.862L67.1789 101.745Z" fill="white"/>
<path d="M81.2481 62.5707C80.2413 63.4688 78.697 63.3807 77.7989 62.3738L68.2859 51.709C67.3878 50.7021 67.476 49.1578 68.4828 48.2598L71.6276 45.4546C72.6344 44.5565 74.1787 44.6447 75.0768 45.6515L84.5898 56.3164C85.4879 57.3233 85.3997 58.8675 84.3929 59.7656L81.2481 62.5707Z" fill="white"/>
<path d="M14.8293 99.779C16.1591 99.5508 17.4221 100.444 17.6504 101.773L20.0682 115.859C20.2965 117.188 19.4036 118.451 18.0738 118.68L13.9205 119.392C12.5908 119.621 11.3278 118.728 11.0995 117.398L8.68164 103.313C8.45338 101.983 9.3463 100.72 10.676 100.492L14.8293 99.779Z" fill="white"/>
</svg>
