<svg width="54" height="126" viewBox="0 0 54 126" fill="none" xmlns="http://www.w3.org/2000/svg">
<path d="M24.5192 22.9964L10.4017 10.338C10.106 10.0728 9.63839 10.1083 9.3987 10.4302C6.53956 14.2426 7.31545 19.957 11.304 23.5333C15.2925 27.1097 21.0563 27.2613 24.5366 24.0035C24.8292 23.7291 24.815 23.2616 24.5192 22.9964Z" fill="white"/>
<path d="M18.2986 89.2987L31.6529 75.8376C31.9327 75.5555 31.9208 75.0868 31.6114 74.8312C27.948 71.7834 22.2017 72.2701 18.4288 76.0732C14.6559 79.8763 14.2138 85.6251 17.2919 89.2653C17.5512 89.5714 18.0188 89.5808 18.2986 89.2987Z" fill="white"/>
<path d="M15.4578 58.6614C12.6739 58.9571 9.93631 54.6696 9.34321 49.085C8.75011 43.5004 10.5261 38.7335 13.31 38.4378C16.094 38.1421 18.8316 42.4297 19.4247 48.0143C20.0178 53.5989 18.2418 58.3658 15.4578 58.6614Z" fill="white"/>
<path d="M50.9887 92.9476C48.7723 92.7062 47.4683 87.9846 48.0763 82.4016C48.6843 76.8186 50.9739 72.4884 53.1904 72.7297C55.4068 72.9711 56.7108 77.6927 56.1028 83.2757C55.4948 88.8587 53.2052 93.1889 50.9887 92.9476Z" fill="white"/>
<path fill-rule="evenodd" clip-rule="evenodd" d="M52.165 45.3134C53.0924 46.6101 52.7922 48.4107 51.4944 49.3351C48.5718 51.4166 44.6388 52.0346 40.9138 50.8242C37.1886 49.6139 34.3707 46.8017 33.2297 43.4008C32.7229 41.8903 33.5381 40.257 35.0506 39.7528C36.563 39.2487 38.2 40.0645 38.7068 41.5751C39.2452 43.1799 40.6499 44.676 42.6955 45.3406C44.7416 46.0055 46.7574 45.6208 48.1359 44.639C49.4337 43.7147 51.2376 44.0166 52.165 45.3134Z" fill="white"/>
<path fill-rule="evenodd" clip-rule="evenodd" d="M57.3492 113.026C58.4764 114.154 58.4751 115.979 57.3461 117.104C54.8039 119.636 51.0251 120.889 47.1522 120.305C43.2792 119.721 40.0388 117.408 38.3563 114.24C37.609 112.833 38.1458 111.088 39.5553 110.343C40.9648 109.598 42.7132 110.135 43.4605 111.542C44.2545 113.037 45.8852 114.283 48.0119 114.604C50.1394 114.925 52.0649 114.215 53.264 113.021C54.393 111.897 56.222 111.899 57.3492 113.026Z" fill="white"/>
<path d="M40.3619 14.979C39.6104 13.8585 39.9095 12.341 41.03 11.5894L52.8987 3.62881C54.0192 2.87727 55.5367 3.17636 56.2883 4.29685L58.6356 7.79659C59.3872 8.91709 59.0881 10.4347 57.9676 11.1862L46.0989 19.1468C44.9784 19.8984 43.4608 19.5993 42.7093 18.4788L40.3619 14.979Z" fill="white"/>
<path d="M14.8293 99.779C16.1591 99.5508 17.4221 100.444 17.6504 101.773L20.0682 115.859C20.2965 117.188 19.4036 118.451 18.0738 118.68L13.9205 119.392C12.5908 119.621 11.3278 118.728 11.0995 117.398L8.68164 103.313C8.45338 101.983 9.3463 100.72 10.676 100.492L14.8293 99.779Z" fill="white"/>
</svg>
