<svg width="252" height="200" viewBox="0 0 252 200" fill="none" xmlns="http://www.w3.org/2000/svg">
<path d="M49.0385 19.9929L20.8035 -5.32389C20.2119 -5.85432 19.2768 -5.78329 18.7974 -5.13951C13.0791 2.48524 14.6309 13.9142 22.608 21.0668C30.5851 28.2194 42.1126 28.5227 49.0732 22.0072C49.6585 21.4584 49.6301 20.5234 49.0385 19.9929Z" fill="#FF6633"/>
<path d="M195.221 192.796L223.456 218.113C224.048 218.643 224.983 218.572 225.462 217.928C231.18 210.304 229.629 198.875 221.651 191.722C213.674 184.569 202.147 184.266 195.186 190.782C194.601 191.33 194.629 192.265 195.221 192.796Z" fill="#FF6633"/>
<path d="M227.079 69.1119L197.715 45.1137C197.099 44.6109 196.168 44.7247 195.719 45.3897C190.356 53.2682 192.429 64.6141 200.725 71.3942C209.021 78.1743 220.55 77.9497 227.205 71.1224C227.765 70.5474 227.694 69.6147 227.079 69.1119Z" fill="#FF6633"/>
<path d="M36.5971 152.597L63.3057 125.675C63.8653 125.111 63.8415 124.173 63.2227 123.662C55.896 117.567 44.4034 118.54 36.8576 126.146C29.3117 133.753 28.4275 145.25 34.5837 152.53C35.1023 153.143 36.0375 153.161 36.5971 152.597Z" fill="#FF6633"/>
<path d="M30.9157 91.3229C25.3479 91.9142 19.8727 83.3391 18.6865 72.1699C17.5003 61.0007 21.0523 51.4669 26.6201 50.8756C32.188 50.2843 37.6632 58.8594 38.8494 70.0286C40.0356 81.1978 36.4836 90.7316 30.9157 91.3229Z" fill="#FCA21C"/>
<path d="M216.571 110.581C222.139 109.99 227.614 118.565 228.8 129.734C229.987 140.903 226.435 150.437 220.867 151.029C215.299 151.62 209.824 143.045 208.638 131.876C207.451 120.706 211.003 111.173 216.571 110.581Z" fill="#FCA21C"/>
<path d="M155.856 4.90633C159.476 7.509 157.097 17.0123 150.541 26.1326C143.985 35.2529 135.736 40.5364 132.115 37.9337C128.494 35.3311 130.873 25.8278 137.429 16.7075C143.985 7.58721 152.235 2.30366 155.856 4.90633Z" fill="#FCA21C"/>
<path d="M101.977 159.895C97.5446 159.413 94.9367 149.969 96.1526 138.803C97.3686 127.637 101.948 118.977 106.381 119.46C110.814 119.942 113.422 129.385 112.206 140.551C110.99 151.717 106.41 160.378 101.977 159.895Z" fill="#FCA21C"/>
<path fill-rule="evenodd" clip-rule="evenodd" d="M104.33 64.6266C106.185 67.2202 105.584 70.8213 102.989 72.67C97.1436 76.833 89.2776 78.069 81.8275 75.6483C74.3772 73.2277 68.7413 67.6034 66.4593 60.8016C65.4457 57.7804 67.0762 54.5139 70.1011 53.5055C73.1261 52.4972 76.4 54.1289 77.4136 57.1501C78.4904 60.3597 81.2998 63.3519 85.3909 64.6811C89.4833 66.0108 93.5147 65.2415 96.2717 63.2779C98.8674 61.4292 102.475 62.0331 104.33 64.6266Z" fill="#70C05B"/>
<path fill-rule="evenodd" clip-rule="evenodd" d="M146.577 135.599C144.722 133.006 145.323 129.404 147.918 127.556C153.763 123.393 161.629 122.157 169.08 124.577C176.53 126.998 182.166 132.622 184.448 139.424C185.461 142.445 183.831 145.712 180.806 146.72C177.781 147.729 174.507 146.097 173.493 143.076C172.417 139.866 169.607 136.874 165.516 135.545C161.424 134.215 157.392 134.984 154.635 136.948C152.04 138.797 148.432 138.193 146.577 135.599Z" fill="#70C05B"/>
<path fill-rule="evenodd" clip-rule="evenodd" d="M204.272 -0.775651C203.762 -3.92321 205.9 -6.8828 209.047 -7.38606C216.133 -8.51938 223.729 -6.13258 229.328 -0.654445C234.928 4.82377 237.479 12.3662 236.502 19.4738C236.068 22.6308 233.156 24.8331 229.998 24.3928C226.84 23.9524 224.632 21.0362 225.066 17.8793C225.527 14.5253 224.339 10.5966 221.264 7.58844C218.188 4.57929 214.235 3.4777 210.892 4.01226C207.746 4.51553 204.782 2.37191 204.272 -0.775651Z" fill="#70C05B"/>
<path fill-rule="evenodd" clip-rule="evenodd" d="M114.698 200.053C116.953 202.308 116.95 205.959 114.692 208.207C109.608 213.271 102.05 215.779 94.3043 214.61C86.5582 213.442 80.0775 208.817 76.7125 202.481C75.2179 199.666 76.2915 196.177 79.1105 194.687C81.9295 193.197 85.4263 194.27 86.921 197.085C88.5088 200.075 91.7703 202.566 96.0238 203.208C100.279 203.849 104.13 202.43 106.528 200.042C108.786 197.793 112.444 197.798 114.698 200.053Z" fill="#70C05B"/>
<path d="M80.7239 3.95806C79.2208 1.71707 79.819 -1.3181 82.06 -2.82118L105.797 -18.7424C108.038 -20.2455 111.073 -19.6473 112.577 -17.4063L117.271 -10.4068C118.774 -8.16583 118.176 -5.13066 115.935 -3.62758L92.1978 12.2936C89.9569 13.7967 86.9217 13.1985 85.4186 10.9575L80.7239 3.95806Z" fill="#1CB9FC"/>
<path d="M134.358 177.491C133.782 174.854 135.453 172.251 138.089 171.675L166.013 165.579C168.65 165.003 171.253 166.674 171.829 169.31L173.627 177.544C174.202 180.18 172.532 182.784 169.895 183.36L141.971 189.456C139.335 190.032 136.731 188.361 136.155 185.725L134.358 177.491Z" fill="#1CB9FC"/>
<path d="M162.496 99.1414C160.483 100.938 157.394 100.761 155.598 98.7476L136.572 77.4178C134.776 75.4041 134.952 72.3156 136.966 70.5194L143.255 64.9092C145.269 63.113 148.357 63.2893 150.154 65.303L169.18 86.6327C170.976 88.6464 170.8 91.735 168.786 93.5312L162.496 99.1414Z" fill="#1CB9FC"/>
<path d="M29.6586 173.558C32.3181 173.101 34.8441 174.887 35.3007 177.547L40.1364 205.717C40.5929 208.376 38.8071 210.902 36.1476 211.359L27.841 212.785C25.1815 213.241 22.6555 211.456 22.1989 208.796L17.3632 180.626C16.9067 177.966 18.6925 175.44 21.352 174.984L29.6586 173.558Z" fill="#1CB9FC"/>
</svg>
