<svg width="216" height="200" viewBox="0 0 216 200" fill="none" xmlns="http://www.w3.org/2000/svg">
<path d="M13.0385 19.9929L-15.1965 -5.32389C-15.7881 -5.85432 -16.7232 -5.78329 -17.2026 -5.13951C-22.9209 2.48524 -21.3691 13.9142 -13.392 21.0668C-5.41491 28.2194 6.11262 28.5227 13.0732 22.0072C13.6585 21.4584 13.6301 20.5234 13.0385 19.9929Z" fill="#FF6633"/>
<path d="M159.221 192.796L187.456 218.113C188.048 218.643 188.983 218.572 189.462 217.928C195.18 210.304 193.629 198.875 185.651 191.722C177.674 184.569 166.147 184.266 159.186 190.782C158.601 191.33 158.629 192.265 159.221 192.796Z" fill="#FF6633"/>
<path d="M191.079 69.1119L161.715 45.1137C161.099 44.6109 160.168 44.7247 159.719 45.3897C154.356 53.2682 156.429 64.6141 164.725 71.3942C173.021 78.1743 184.55 77.9497 191.205 71.1224C191.765 70.5474 191.694 69.6147 191.079 69.1119Z" fill="#FF6633"/>
<path d="M0.597088 152.597L27.3057 125.675C27.8653 125.111 27.8415 124.173 27.2227 123.662C19.896 117.567 8.4034 118.54 0.857552 126.146C-6.6883 133.753 -7.57255 145.25 -1.41633 152.53C-0.897741 153.143 0.0375038 153.161 0.597088 152.597Z" fill="#FF6633"/>
<path d="M-5.08425 91.3229C-10.6521 91.9142 -16.1273 83.3391 -17.3135 72.1699C-18.4997 61.0007 -14.9477 51.4669 -9.37986 50.8756C-3.81202 50.2843 1.6632 58.8594 2.8494 70.0286C4.0356 81.1978 0.483584 90.7316 -5.08425 91.3229Z" fill="#FCA21C"/>
<path d="M180.571 110.581C186.139 109.99 191.614 118.565 192.8 129.734C193.987 140.903 190.435 150.437 184.867 151.029C179.299 151.62 173.824 143.045 172.638 131.876C171.451 120.706 175.003 111.173 180.571 110.581Z" fill="#FCA21C"/>
<path d="M119.856 4.90633C123.476 7.509 121.097 17.0123 114.541 26.1326C107.985 35.2529 99.7356 40.5364 96.1148 37.9337C92.4941 35.3311 94.8735 25.8278 101.429 16.7075C107.985 7.58721 116.235 2.30366 119.856 4.90633Z" fill="#FCA21C"/>
<path d="M65.9775 159.895C61.5446 159.413 58.9367 149.969 60.1527 138.803C61.3686 127.637 65.9479 118.977 70.3808 119.46C74.8137 119.942 77.4216 129.385 76.2056 140.551C74.9897 151.717 70.4104 160.378 65.9775 159.895Z" fill="#FCA21C"/>
<path fill-rule="evenodd" clip-rule="evenodd" d="M68.33 64.6266C70.1848 67.2202 69.5843 70.8213 66.9886 72.67C61.1436 76.833 53.2776 78.069 45.8274 75.6483C38.3772 73.2277 32.7413 67.6034 30.4593 60.8016C29.4457 57.7804 31.0762 54.5139 34.1011 53.5055C37.126 52.4972 40.3999 54.1289 41.4135 57.1501C42.4904 60.3597 45.2998 63.3519 49.3909 64.6811C53.4832 66.0108 57.5147 65.2415 60.2717 63.2779C62.8673 61.4292 66.4751 62.0331 68.33 64.6266Z" fill="#70C05B"/>
<path fill-rule="evenodd" clip-rule="evenodd" d="M110.577 135.599C108.722 133.006 109.323 129.404 111.918 127.556C117.763 123.393 125.629 122.157 133.08 124.577C140.53 126.998 146.166 132.622 148.448 139.424C149.461 142.445 147.831 145.712 144.806 146.72C141.781 147.729 138.507 146.097 137.494 143.076C136.417 139.866 133.607 136.874 129.516 135.545C125.424 134.215 121.392 134.984 118.635 136.948C116.04 138.797 112.432 138.193 110.577 135.599Z" fill="#70C05B"/>
<path fill-rule="evenodd" clip-rule="evenodd" d="M168.272 -0.775651C167.762 -3.92321 169.9 -6.8828 173.047 -7.38606C180.133 -8.51938 187.729 -6.13258 193.328 -0.654445C198.928 4.82377 201.479 12.3662 200.502 19.4738C200.068 22.6308 197.156 24.8331 193.998 24.3928C190.84 23.9524 188.632 21.0362 189.066 17.8793C189.527 14.5253 188.339 10.5966 185.264 7.58844C182.188 4.57929 178.235 3.4777 174.892 4.01226C171.746 4.51553 168.782 2.37191 168.272 -0.775651Z" fill="#70C05B"/>
<path fill-rule="evenodd" clip-rule="evenodd" d="M78.6983 200.053C80.9528 202.308 80.9501 205.959 78.6922 208.207C73.6077 213.271 66.0502 215.779 58.3043 214.61C50.5582 213.442 44.0775 208.817 40.7125 202.481C39.2179 199.666 40.2915 196.177 43.1105 194.687C45.9295 193.197 49.4263 194.27 50.921 197.085C52.5088 200.075 55.7703 202.566 60.0238 203.208C64.2786 203.849 68.1297 202.43 70.528 200.042C72.7859 197.793 76.4439 197.798 78.6983 200.053Z" fill="#70C05B"/>
<path d="M44.7239 3.95806C43.2208 1.71707 43.819 -1.3181 46.06 -2.82118L69.7973 -18.7424C72.0383 -20.2455 75.0735 -19.6473 76.5766 -17.4063L81.2713 -10.4068C82.7744 -8.16583 82.1762 -5.13066 79.9352 -3.62758L56.1978 12.2936C53.9569 13.7967 50.9217 13.1985 49.4186 10.9575L44.7239 3.95806Z" fill="#1CB9FC"/>
<path d="M98.3577 177.491C97.7821 174.854 99.4527 172.251 102.089 171.675L130.013 165.579C132.65 165.003 135.253 166.674 135.829 169.31L137.627 177.544C138.202 180.18 136.532 182.784 133.895 183.36L105.971 189.456C103.335 190.032 100.731 188.361 100.155 185.725L98.3577 177.491Z" fill="#1CB9FC"/>
<path d="M126.496 99.1414C124.483 100.938 121.394 100.761 119.598 98.7476L100.572 77.4178C98.7757 75.4041 98.952 72.3156 100.966 70.5194L107.255 64.9092C109.269 63.113 112.357 63.2893 114.154 65.303L133.18 86.6327C134.976 88.6464 134.8 91.735 132.786 93.5312L126.496 99.1414Z" fill="#1CB9FC"/>
<path d="M-6.34136 173.558C-3.68188 173.101 -1.15585 174.887 -0.699323 177.547L4.13639 205.717C4.59292 208.376 2.80707 210.902 0.147581 211.359L-8.15902 212.785C-10.8185 213.241 -13.3445 211.456 -13.8011 208.796L-18.6368 180.626C-19.0933 177.966 -17.3075 175.44 -14.648 174.984L-6.34136 173.558Z" fill="#1CB9FC"/>
</svg>
